<mxfile host="app.diagrams.net" modified="2024-05-27T08:30:02.958Z" agent="Mozilla/5.0 (Windows NT 10.0; Win64; x64; rv:126.0) Gecko/20100101 Firefox/126.0" etag="sX6_rC7-co0Rw1DFGbYY" version="24.4.8" type="github">
  <diagram id="C5RBs43oDa-KdzZeNtuy" name="Page-1">
    <mxGraphModel dx="472" dy="781" grid="1" gridSize="10" guides="1" tooltips="1" connect="1" arrows="1" fold="1" page="1" pageScale="1" pageWidth="827" pageHeight="1169" math="0" shadow="0">
      <root>
        <mxCell id="WIyWlLk6GJQsqaUBKTNV-0" />
        <mxCell id="WIyWlLk6GJQsqaUBKTNV-1" parent="WIyWlLk6GJQsqaUBKTNV-0" />
        <mxCell id="KmATkjK-KA7L3xI-p3r8-5" value="" style="edgeStyle=orthogonalEdgeStyle;rounded=0;orthogonalLoop=1;jettySize=auto;html=1;" edge="1" parent="WIyWlLk6GJQsqaUBKTNV-1" source="KmATkjK-KA7L3xI-p3r8-0" target="KmATkjK-KA7L3xI-p3r8-1">
          <mxGeometry relative="1" as="geometry" />
        </mxCell>
        <mxCell id="KmATkjK-KA7L3xI-p3r8-0" value="&#xa;&lt;div style=&quot;color: #d4d4d4;background-color: #1e1e1e;font-family: &#39;Fira Code&#39;, Consolas, &#39;Courier New&#39;, monospace;font-weight: normal;font-size: 13px;line-height: 18px;white-space: pre;&quot;&gt;&lt;div&gt;&lt;span style=&quot;color: #4ec9b0;&quot;&gt;Lexer&lt;/span&gt;&lt;/div&gt;&lt;/div&gt;&#xa;&#xa;" style="rounded=1;whiteSpace=wrap;html=1;" vertex="1" parent="WIyWlLk6GJQsqaUBKTNV-1">
          <mxGeometry x="50" y="60" width="120" height="60" as="geometry" />
        </mxCell>
        <mxCell id="KmATkjK-KA7L3xI-p3r8-16" style="edgeStyle=orthogonalEdgeStyle;rounded=0;orthogonalLoop=1;jettySize=auto;html=1;entryX=0.5;entryY=0;entryDx=0;entryDy=0;" edge="1" parent="WIyWlLk6GJQsqaUBKTNV-1" source="KmATkjK-KA7L3xI-p3r8-1" target="KmATkjK-KA7L3xI-p3r8-7">
          <mxGeometry relative="1" as="geometry" />
        </mxCell>
        <mxCell id="KmATkjK-KA7L3xI-p3r8-17" style="edgeStyle=orthogonalEdgeStyle;rounded=0;orthogonalLoop=1;jettySize=auto;html=1;entryX=0;entryY=0.5;entryDx=0;entryDy=0;" edge="1" parent="WIyWlLk6GJQsqaUBKTNV-1" source="KmATkjK-KA7L3xI-p3r8-1" target="KmATkjK-KA7L3xI-p3r8-13">
          <mxGeometry relative="1" as="geometry">
            <Array as="points">
              <mxPoint x="30" y="200" />
              <mxPoint x="30" y="470" />
            </Array>
          </mxGeometry>
        </mxCell>
        <mxCell id="KmATkjK-KA7L3xI-p3r8-1" value="&#xa;&lt;div style=&quot;color: #d4d4d4;background-color: #1e1e1e;font-family: &#39;Fira Code&#39;, Consolas, &#39;Courier New&#39;, monospace;font-weight: normal;font-size: 13px;line-height: 18px;white-space: pre;&quot;&gt;&lt;div&gt;&lt;span style=&quot;color: #4ec9b0;&quot;&gt;Parser&lt;/span&gt;&lt;/div&gt;&lt;/div&gt;&#xa;&#xa;" style="rounded=1;whiteSpace=wrap;html=1;" vertex="1" parent="WIyWlLk6GJQsqaUBKTNV-1">
          <mxGeometry x="50" y="170" width="120" height="60" as="geometry" />
        </mxCell>
        <mxCell id="KmATkjK-KA7L3xI-p3r8-2" value="&#xa;&lt;div style=&quot;color: #d4d4d4;background-color: #1e1e1e;font-family: &#39;Fira Code&#39;, Consolas, &#39;Courier New&#39;, monospace;font-weight: normal;font-size: 13px;line-height: 18px;white-space: pre;&quot;&gt;&lt;div&gt;&lt;span style=&quot;color: #4ec9b0;&quot;&gt;LexerTokens&lt;/span&gt;&lt;/div&gt;&lt;/div&gt;&#xa;&#xa;" style="shape=hexagon;perimeter=hexagonPerimeter2;whiteSpace=wrap;html=1;fixedSize=1;" vertex="1" parent="WIyWlLk6GJQsqaUBKTNV-1">
          <mxGeometry x="180" y="60" width="120" height="60" as="geometry" />
        </mxCell>
        <mxCell id="KmATkjK-KA7L3xI-p3r8-4" value="&lt;br&gt;&lt;div style=&quot;color: #d4d4d4;background-color: #1e1e1e;font-family: &#39;Fira Code&#39;, Consolas, &#39;Courier New&#39;, monospace;font-weight: normal;font-size: 13px;line-height: 18px;white-space: pre;&quot;&gt;&lt;div&gt;&lt;span style=&quot;color: #4ec9b0;&quot;&gt;InterpTokens&lt;/span&gt;&lt;/div&gt;&lt;/div&gt;&lt;div&gt;&lt;br/&gt;&lt;/div&gt;" style="shape=hexagon;perimeter=hexagonPerimeter2;whiteSpace=wrap;html=1;fixedSize=1;" vertex="1" parent="WIyWlLk6GJQsqaUBKTNV-1">
          <mxGeometry x="200" y="280" width="120" height="60" as="geometry" />
        </mxCell>
        <mxCell id="KmATkjK-KA7L3xI-p3r8-12" style="edgeStyle=orthogonalEdgeStyle;rounded=0;orthogonalLoop=1;jettySize=auto;html=1;entryX=0;entryY=0.5;entryDx=0;entryDy=0;exitX=0.5;exitY=1;exitDx=0;exitDy=0;" edge="1" parent="WIyWlLk6GJQsqaUBKTNV-1" source="KmATkjK-KA7L3xI-p3r8-7" target="KmATkjK-KA7L3xI-p3r8-8">
          <mxGeometry relative="1" as="geometry">
            <Array as="points">
              <mxPoint x="110" y="390" />
            </Array>
          </mxGeometry>
        </mxCell>
        <mxCell id="KmATkjK-KA7L3xI-p3r8-15" style="edgeStyle=orthogonalEdgeStyle;rounded=0;orthogonalLoop=1;jettySize=auto;html=1;" edge="1" parent="WIyWlLk6GJQsqaUBKTNV-1" source="KmATkjK-KA7L3xI-p3r8-7" target="KmATkjK-KA7L3xI-p3r8-13">
          <mxGeometry relative="1" as="geometry" />
        </mxCell>
        <mxCell id="KmATkjK-KA7L3xI-p3r8-7" value="&#xa;&lt;div style=&quot;color: #d4d4d4;background-color: #1e1e1e;font-family: &#39;Fira Code&#39;, Consolas, &#39;Courier New&#39;, monospace;font-weight: normal;font-size: 13px;line-height: 18px;white-space: pre;&quot;&gt;&lt;div&gt;&lt;span style=&quot;color: #4ec9b0;&quot;&gt;PrepareRun&lt;/span&gt;&lt;/div&gt;&lt;/div&gt;&#xa;&#xa;" style="rounded=1;whiteSpace=wrap;html=1;" vertex="1" parent="WIyWlLk6GJQsqaUBKTNV-1">
          <mxGeometry x="50" y="280" width="120" height="60" as="geometry" />
        </mxCell>
        <mxCell id="KmATkjK-KA7L3xI-p3r8-27" value="" style="edgeStyle=orthogonalEdgeStyle;rounded=0;orthogonalLoop=1;jettySize=auto;html=1;" edge="1" parent="WIyWlLk6GJQsqaUBKTNV-1" source="KmATkjK-KA7L3xI-p3r8-8" target="KmATkjK-KA7L3xI-p3r8-26">
          <mxGeometry relative="1" as="geometry" />
        </mxCell>
        <mxCell id="KmATkjK-KA7L3xI-p3r8-8" value="&#xa;&lt;div style=&quot;color: #d4d4d4;background-color: #1e1e1e;font-family: &#39;Fira Code&#39;, Consolas, &#39;Courier New&#39;, monospace;font-weight: normal;font-size: 13px;line-height: 18px;white-space: pre;&quot;&gt;&lt;div&gt;&lt;span style=&quot;color: #4ec9b0;&quot;&gt;Plugins&lt;/span&gt;&lt;/div&gt;&lt;/div&gt;&#xa;&#xa;" style="rounded=1;whiteSpace=wrap;html=1;" vertex="1" parent="WIyWlLk6GJQsqaUBKTNV-1">
          <mxGeometry x="200" y="360" width="120" height="60" as="geometry" />
        </mxCell>
        <mxCell id="KmATkjK-KA7L3xI-p3r8-10" value="&#xa;&lt;div style=&quot;color: #d4d4d4;background-color: #1e1e1e;font-family: &#39;Fira Code&#39;, Consolas, &#39;Courier New&#39;, monospace;font-weight: normal;font-size: 13px;line-height: 18px;white-space: pre;&quot;&gt;&lt;div&gt;&lt;span style=&quot;color: #4ec9b0;&quot;&gt;ParserTokens&lt;/span&gt;&lt;/div&gt;&lt;/div&gt;&#xa;&#xa;" style="shape=hexagon;perimeter=hexagonPerimeter2;whiteSpace=wrap;html=1;fixedSize=1;" vertex="1" parent="WIyWlLk6GJQsqaUBKTNV-1">
          <mxGeometry x="190" y="170" width="120" height="60" as="geometry" />
        </mxCell>
        <mxCell id="KmATkjK-KA7L3xI-p3r8-13" value="&#xa;&lt;div style=&quot;color: #d4d4d4;background-color: #1e1e1e;font-family: &#39;Fira Code&#39;, Consolas, &#39;Courier New&#39;, monospace;font-weight: normal;font-size: 13px;line-height: 18px;white-space: pre;&quot;&gt;&lt;div&gt;&lt;span style=&quot;color: #4ec9b0;&quot;&gt;Interpreter&lt;/span&gt;&lt;/div&gt;&lt;/div&gt;&#xa;&#xa;" style="rounded=1;whiteSpace=wrap;html=1;" vertex="1" parent="WIyWlLk6GJQsqaUBKTNV-1">
          <mxGeometry x="50" y="440" width="120" height="60" as="geometry" />
        </mxCell>
        <mxCell id="KmATkjK-KA7L3xI-p3r8-18" value="&#xa;&lt;div style=&quot;color: #d4d4d4;background-color: #1e1e1e;font-family: &#39;Fira Code&#39;, Consolas, &#39;Courier New&#39;, monospace;font-weight: normal;font-size: 13px;line-height: 18px;white-space: pre;&quot;&gt;&lt;div&gt;&lt;span style=&quot;color: #4ec9b0;&quot;&gt;Memory&lt;/span&gt;&lt;/div&gt;&lt;/div&gt;&#xa;&#xa;" style="rounded=1;whiteSpace=wrap;html=1;" vertex="1" parent="WIyWlLk6GJQsqaUBKTNV-1">
          <mxGeometry x="234" y="500" width="120" height="60" as="geometry" />
        </mxCell>
        <mxCell id="KmATkjK-KA7L3xI-p3r8-19" value="&#xa;&lt;div style=&quot;color: #d4d4d4;background-color: #1e1e1e;font-family: &#39;Fira Code&#39;, Consolas, &#39;Courier New&#39;, monospace;font-weight: normal;font-size: 13px;line-height: 18px;white-space: pre;&quot;&gt;&lt;div&gt;&lt;span style=&quot;color: #4ec9b0;&quot;&gt;Runtime&lt;/span&gt;&lt;/div&gt;&lt;/div&gt;&#xa;&#xa;" style="rounded=1;whiteSpace=wrap;html=1;" vertex="1" parent="WIyWlLk6GJQsqaUBKTNV-1">
          <mxGeometry x="50" y="540" width="120" height="60" as="geometry" />
        </mxCell>
        <mxCell id="KmATkjK-KA7L3xI-p3r8-20" value="" style="shape=flexArrow;endArrow=classic;html=1;rounded=0;exitX=0.5;exitY=1;exitDx=0;exitDy=0;entryX=0.5;entryY=0;entryDx=0;entryDy=0;" edge="1" parent="WIyWlLk6GJQsqaUBKTNV-1" source="KmATkjK-KA7L3xI-p3r8-13" target="KmATkjK-KA7L3xI-p3r8-19">
          <mxGeometry width="50" height="50" relative="1" as="geometry">
            <mxPoint x="170" y="330" as="sourcePoint" />
            <mxPoint x="220" y="280" as="targetPoint" />
          </mxGeometry>
        </mxCell>
        <mxCell id="KmATkjK-KA7L3xI-p3r8-21" value="" style="shape=flexArrow;endArrow=classic;html=1;rounded=0;exitX=1;exitY=0.25;exitDx=0;exitDy=0;entryX=0.5;entryY=0;entryDx=0;entryDy=0;" edge="1" parent="WIyWlLk6GJQsqaUBKTNV-1" source="KmATkjK-KA7L3xI-p3r8-13" target="KmATkjK-KA7L3xI-p3r8-18">
          <mxGeometry width="50" height="50" relative="1" as="geometry">
            <mxPoint x="120" y="510" as="sourcePoint" />
            <mxPoint x="190" y="565" as="targetPoint" />
            <Array as="points">
              <mxPoint x="294" y="455" />
            </Array>
          </mxGeometry>
        </mxCell>
        <mxCell id="KmATkjK-KA7L3xI-p3r8-22" value="" style="shape=flexArrow;endArrow=classic;html=1;rounded=0;entryX=0.5;entryY=1;entryDx=0;entryDy=0;exitX=0.5;exitY=1;exitDx=0;exitDy=0;" edge="1" parent="WIyWlLk6GJQsqaUBKTNV-1" source="KmATkjK-KA7L3xI-p3r8-18" target="KmATkjK-KA7L3xI-p3r8-19">
          <mxGeometry width="50" height="50" relative="1" as="geometry">
            <mxPoint x="290" y="640" as="sourcePoint" />
            <mxPoint x="110" y="640" as="targetPoint" />
            <Array as="points">
              <mxPoint x="294" y="640" />
              <mxPoint x="110" y="640" />
            </Array>
          </mxGeometry>
        </mxCell>
        <mxCell id="KmATkjK-KA7L3xI-p3r8-25" value="" style="endArrow=classic;html=1;rounded=0;exitX=0.25;exitY=0;exitDx=0;exitDy=0;entryX=1;entryY=0.75;entryDx=0;entryDy=0;" edge="1" parent="WIyWlLk6GJQsqaUBKTNV-1" source="KmATkjK-KA7L3xI-p3r8-18" target="KmATkjK-KA7L3xI-p3r8-13">
          <mxGeometry width="50" height="50" relative="1" as="geometry">
            <mxPoint x="170" y="330" as="sourcePoint" />
            <mxPoint x="220" y="280" as="targetPoint" />
            <Array as="points">
              <mxPoint x="264" y="485" />
            </Array>
          </mxGeometry>
        </mxCell>
        <mxCell id="KmATkjK-KA7L3xI-p3r8-26" value="&lt;br&gt;&lt;div style=&quot;color: #d4d4d4;background-color: #1e1e1e;font-family: &#39;Fira Code&#39;, Consolas, &#39;Courier New&#39;, monospace;font-weight: normal;font-size: 13px;line-height: 18px;white-space: pre;&quot;&gt;&lt;div&gt;&lt;span style=&quot;color: #4ec9b0;&quot;&gt;External&lt;/span&gt;&lt;/div&gt;&lt;div&gt;&lt;span style=&quot;color: #4ec9b0;&quot;&gt;Interfacing&lt;/span&gt;&lt;/div&gt;&lt;/div&gt;&lt;div&gt;&lt;br/&gt;&lt;/div&gt;" style="whiteSpace=wrap;html=1;rounded=1;" vertex="1" parent="WIyWlLk6GJQsqaUBKTNV-1">
          <mxGeometry x="390" y="360" width="120" height="60" as="geometry" />
        </mxCell>
        <mxCell id="KmATkjK-KA7L3xI-p3r8-28" value="&#xa;&lt;div style=&quot;color: #d4d4d4;background-color: #1e1e1e;font-family: &#39;Fira Code&#39;, Consolas, &#39;Courier New&#39;, monospace;font-weight: normal;font-size: 13px;line-height: 18px;white-space: pre;&quot;&gt;&lt;div&gt;&lt;span style=&quot;color: #4ec9b0;&quot;&gt;Storage&lt;/span&gt;&lt;/div&gt;&lt;/div&gt;&#xa;&#xa;" style="rounded=1;whiteSpace=wrap;html=1;" vertex="1" parent="WIyWlLk6GJQsqaUBKTNV-1">
          <mxGeometry x="390" y="430" width="120" height="60" as="geometry" />
        </mxCell>
        <mxCell id="KmATkjK-KA7L3xI-p3r8-29" value="&#xa;&lt;div style=&quot;color: #d4d4d4;background-color: #1e1e1e;font-family: &#39;Fira Code&#39;, Consolas, &#39;Courier New&#39;, monospace;font-weight: normal;font-size: 13px;line-height: 18px;white-space: pre;&quot;&gt;&lt;div&gt;&lt;span style=&quot;color: #4ec9b0;&quot;&gt;Referrer&lt;/span&gt;&lt;/div&gt;&lt;/div&gt;&#xa;&#xa;" style="rounded=1;whiteSpace=wrap;html=1;" vertex="1" parent="WIyWlLk6GJQsqaUBKTNV-1">
          <mxGeometry x="390" y="500" width="120" height="60" as="geometry" />
        </mxCell>
        <mxCell id="KmATkjK-KA7L3xI-p3r8-30" value="&#xa;&lt;div style=&quot;color: #d4d4d4;background-color: #1e1e1e;font-family: &#39;Fira Code&#39;, Consolas, &#39;Courier New&#39;, monospace;font-weight: normal;font-size: 13px;line-height: 18px;white-space: pre;&quot;&gt;&lt;div&gt;&lt;span style=&quot;color: #4ec9b0;&quot;&gt;ConstantPool&lt;/span&gt;&lt;/div&gt;&lt;/div&gt;&#xa;&#xa;" style="rounded=1;whiteSpace=wrap;html=1;" vertex="1" parent="WIyWlLk6GJQsqaUBKTNV-1">
          <mxGeometry x="390" y="570" width="120" height="60" as="geometry" />
        </mxCell>
        <mxCell id="KmATkjK-KA7L3xI-p3r8-31" value="&#xa;&lt;div style=&quot;color: #d4d4d4;background-color: #1e1e1e;font-family: &#39;Fira Code&#39;, Consolas, &#39;Courier New&#39;, monospace;font-weight: normal;font-size: 13px;line-height: 18px;white-space: pre;&quot;&gt;&lt;div&gt;&lt;span style=&quot;color: #4ec9b0;&quot;&gt;HashTables&lt;/span&gt;&lt;/div&gt;&lt;/div&gt;&#xa;&#xa;" style="rounded=1;whiteSpace=wrap;html=1;" vertex="1" parent="WIyWlLk6GJQsqaUBKTNV-1">
          <mxGeometry x="390" y="640" width="120" height="60" as="geometry" />
        </mxCell>
        <mxCell id="KmATkjK-KA7L3xI-p3r8-33" value="" style="endArrow=classic;html=1;rounded=0;exitX=1;exitY=0.5;exitDx=0;exitDy=0;entryX=0;entryY=0.5;entryDx=0;entryDy=0;" edge="1" parent="WIyWlLk6GJQsqaUBKTNV-1" source="KmATkjK-KA7L3xI-p3r8-18" target="KmATkjK-KA7L3xI-p3r8-26">
          <mxGeometry width="50" height="50" relative="1" as="geometry">
            <mxPoint x="440" y="450" as="sourcePoint" />
            <mxPoint x="490" y="400" as="targetPoint" />
          </mxGeometry>
        </mxCell>
        <mxCell id="KmATkjK-KA7L3xI-p3r8-34" value="" style="endArrow=classic;html=1;rounded=0;exitX=1;exitY=0.5;exitDx=0;exitDy=0;entryX=0;entryY=0.5;entryDx=0;entryDy=0;" edge="1" parent="WIyWlLk6GJQsqaUBKTNV-1" source="KmATkjK-KA7L3xI-p3r8-18" target="KmATkjK-KA7L3xI-p3r8-29">
          <mxGeometry width="50" height="50" relative="1" as="geometry">
            <mxPoint x="450" y="460" as="sourcePoint" />
            <mxPoint x="500" y="410" as="targetPoint" />
          </mxGeometry>
        </mxCell>
        <mxCell id="KmATkjK-KA7L3xI-p3r8-35" value="" style="endArrow=classic;html=1;rounded=0;exitX=1;exitY=0.5;exitDx=0;exitDy=0;entryX=0;entryY=0.5;entryDx=0;entryDy=0;" edge="1" parent="WIyWlLk6GJQsqaUBKTNV-1" source="KmATkjK-KA7L3xI-p3r8-18" target="KmATkjK-KA7L3xI-p3r8-28">
          <mxGeometry width="50" height="50" relative="1" as="geometry">
            <mxPoint x="350" y="510" as="sourcePoint" />
            <mxPoint x="390" y="460" as="targetPoint" />
          </mxGeometry>
        </mxCell>
        <mxCell id="KmATkjK-KA7L3xI-p3r8-36" value="" style="endArrow=classic;html=1;rounded=0;exitX=1;exitY=0.5;exitDx=0;exitDy=0;entryX=0;entryY=0.5;entryDx=0;entryDy=0;" edge="1" parent="WIyWlLk6GJQsqaUBKTNV-1" source="KmATkjK-KA7L3xI-p3r8-18" target="KmATkjK-KA7L3xI-p3r8-30">
          <mxGeometry width="50" height="50" relative="1" as="geometry">
            <mxPoint x="470" y="480" as="sourcePoint" />
            <mxPoint x="520" y="430" as="targetPoint" />
          </mxGeometry>
        </mxCell>
        <mxCell id="KmATkjK-KA7L3xI-p3r8-37" value="" style="endArrow=classic;html=1;rounded=0;exitX=1;exitY=0.5;exitDx=0;exitDy=0;entryX=0;entryY=0.5;entryDx=0;entryDy=0;" edge="1" parent="WIyWlLk6GJQsqaUBKTNV-1" source="KmATkjK-KA7L3xI-p3r8-18" target="KmATkjK-KA7L3xI-p3r8-31">
          <mxGeometry width="50" height="50" relative="1" as="geometry">
            <mxPoint x="480" y="490" as="sourcePoint" />
            <mxPoint x="530" y="440" as="targetPoint" />
          </mxGeometry>
        </mxCell>
      </root>
    </mxGraphModel>
  </diagram>
</mxfile>
